<svg width="40" height="40" viewBox="0 0 40 40" fill="none" xmlns="http://www.w3.org/2000/svg">
<rect x="1" y="1" width="38" height="38" rx="19" stroke="#201D1D" stroke-width="2"/>
<path d="M20.227 25.3335L20.227 26.5406L21.0805 25.6871L24.4909 22.2767L24.1374 21.9231L24.4909 22.2767C24.5795 22.1881 24.723 22.1881 24.8116 22.2767C24.9001 22.3652 24.9001 22.5088 24.8116 22.5973L20.1606 27.2483C20.072 27.3368 19.9285 27.3368 19.8399 27.2483L19.4864 27.6018L19.8399 27.2483L15.1891 22.5976C15.1446 22.553 15.1226 22.4957 15.1226 22.4371C15.1226 22.3784 15.1446 22.3212 15.189 22.2768C15.2775 22.1882 15.421 22.1882 15.5096 22.2768L15.5096 22.2768L18.92 25.6871L19.7735 26.5406L19.7735 25.3335L19.7735 12.9123C19.7735 12.7871 19.8751 12.6855 20.0003 12.6855C20.1254 12.6855 20.227 12.7871 20.227 12.9123L20.227 25.3335Z" fill="#201D1D" stroke="#201D1D"/>
</svg>
