<svg width="40" height="40" viewBox="0 0 40 40" fill="none" xmlns="http://www.w3.org/2000/svg">
<rect x="39" y="39" width="38" height="38" rx="19" transform="rotate(-180 39 39)" stroke="#201D1D" stroke-width="2"/>
<path d="M19.773 14.6665L19.773 13.4594L18.9195 14.3129L15.5091 17.7233L15.8626 18.0769L15.5091 17.7233C15.4205 17.8119 15.277 17.8119 15.1884 17.7233C15.0999 17.6348 15.0999 17.4912 15.1884 17.4027L19.8394 12.7517C19.928 12.6632 20.0715 12.6632 20.1601 12.7517L20.5136 12.3982L20.1601 12.7517L24.8109 17.4024C24.8554 17.447 24.8774 17.5043 24.8774 17.5629C24.8774 17.6216 24.8554 17.6788 24.811 17.7232C24.7225 17.8118 24.579 17.8118 24.4904 17.7232L24.4904 17.7232L21.08 14.3129L20.2265 13.4594L20.2265 14.6665L20.2265 27.0877C20.2265 27.2129 20.1249 27.3145 19.9997 27.3145C19.8746 27.3145 19.773 27.2129 19.773 27.0877L19.773 14.6665Z" fill="#201D1D" stroke="#201D1D"/>
</svg>
