<svg width="81" height="80" viewBox="0 0 81 80" fill="none" xmlns="http://www.w3.org/2000/svg">
<path opacity="0.3" d="M80.5 40C80.5 62.0914 62.5914 80 40.5 80C18.4086 80 0.5 62.0914 0.5 40C0.5 17.9086 18.4086 0 40.5 0C62.5914 0 80.5 17.9086 80.5 40ZM11.4071 40C11.4071 56.0675 24.4325 69.0929 40.5 69.0929C56.5675 69.0929 69.5929 56.0675 69.5929 40C69.5929 23.9325 56.5675 10.9071 40.5 10.9071C24.4325 10.9071 11.4071 23.9325 11.4071 40Z" fill="#DB4834"/>
<circle cx="40.5" cy="40" r="29" fill="#DB4834"/>
<path d="M28.5989 50.5992L28.5987 50.5991C27.726 49.9483 26.9254 48.9206 26.3426 47.759C25.7597 46.5973 25.4165 45.3451 25.4165 44.2666V31.8666C25.4165 29.5074 27.1713 26.9618 29.391 26.1351L29.392 26.1348L37.7082 23.0183C37.7083 23.0182 37.7084 23.0182 37.7085 23.0182C38.4619 22.7366 39.4614 22.5874 40.4832 22.5874C41.5049 22.5874 42.5044 22.7366 43.2579 23.0182C43.258 23.0182 43.258 23.0182 43.2581 23.0183L51.5744 26.1348L51.5753 26.1351C53.795 26.9618 55.5498 29.5074 55.5498 31.8666V44.2499C55.5498 45.3371 55.2064 46.5892 54.6239 47.7483C54.0414 48.9073 53.2409 49.9313 52.3676 50.5824L52.3674 50.5826L45.2007 55.9326L45.2007 55.9325L45.1945 55.9373C43.9118 56.9264 42.2239 57.4332 40.4998 57.4332C38.7772 57.4332 37.085 56.927 35.7647 55.9486C35.7645 55.9484 35.7644 55.9483 35.7642 55.9482L28.5989 50.5992ZM38.2417 24.4315L38.241 24.4317L29.9244 27.5484L29.9237 27.5486C29.0961 27.8602 28.3549 28.5225 27.8239 29.2906C27.2928 30.059 26.9332 30.9898 26.9332 31.8832V44.2666C26.9332 45.161 27.2438 46.1892 27.7008 47.101C28.1576 48.0126 28.7931 48.8722 29.5007 49.4005L29.5007 49.4006L36.6671 54.7503C37.7291 55.5445 39.1281 55.9249 40.5019 55.9249C41.8759 55.9249 43.2781 55.5445 44.3476 54.7516L44.3489 54.7506L51.5156 49.4006L51.5165 49.3999C52.2313 48.8638 52.8667 48.005 53.3221 47.0943C53.7774 46.1837 54.0832 45.16 54.0832 44.2666V31.8666C54.0832 30.9804 53.7227 30.0538 53.1924 29.2864C52.6619 28.5189 51.9221 27.854 51.0975 27.5338L51.0975 27.5338L51.092 27.5317L42.7753 24.415L42.7753 24.4149L42.7662 24.4117C42.1281 24.1865 41.3 24.0831 40.5006 24.0853C39.7019 24.0875 38.875 24.1951 38.2417 24.4315Z" fill="#FAFAFA" stroke="#FAFAFA"/>
<path d="M37.913 41.0536L38.2666 41.4071L38.6201 41.0536L44.9035 34.7703C45.1915 34.4822 45.6749 34.4822 45.963 34.7703C46.2511 35.0583 46.2511 35.5417 45.963 35.8298L38.7963 42.9965C38.6451 43.1478 38.4578 43.2167 38.2666 43.2167C38.0754 43.2167 37.8881 43.1478 37.7368 42.9965L35.0535 40.3131C34.7654 40.0251 34.7654 39.5417 35.0535 39.2536C35.3415 38.9655 35.8249 38.9655 36.113 39.2536L37.913 41.0536Z" fill="#FAFAFA" stroke="#FAFAFA"/>
</svg>
