<svg width="17" height="17" viewBox="0 0 17 17" fill="none" xmlns="http://www.w3.org/2000/svg">
<path fill-rule="evenodd" clip-rule="evenodd" d="M9.54798 4.78047C8.37603 4.78047 7.59473 5.44983 7.59473 6.73278V7.84839H6.25537V9.29874H7.59473V12.8128H9.21314V9.29874H10.4409L10.6641 7.84839H9.21314V6.90002C9.21314 6.50955 9.43637 6.11914 10.0502 6.11914H10.7199V4.89186C10.7199 4.83608 10.1061 4.78047 9.54798 4.78047ZM8.71088 0.76416C13.1196 0.76416 16.6913 4.33428 16.6913 8.74094C16.6913 13.1476 13.1196 16.7174 8.71088 16.7174C4.30212 16.7174 0.730469 13.1476 0.730469 8.74094C0.730469 4.33428 4.30212 0.76416 8.71088 0.76416Z" fill="white"/>
</svg>
