<svg width="9" height="9" viewBox="0 0 9 9" fill="none" xmlns="http://www.w3.org/2000/svg">
<path d="M7.65201 1.30781C6.81027 0.464062 5.68929 0 4.49799 0C2.03906 0 0.0381696 2.00089 0.0381696 4.45982C0.0381696 5.24531 0.24308 6.01272 0.632812 6.68973L0 9L2.36451 8.37924C3.0154 8.73482 3.74866 8.92165 4.49598 8.92165H4.49799C6.95491 8.92165 9 6.92076 9 4.46183C9 3.27054 8.49375 2.15156 7.65201 1.30781ZM4.49799 8.17031C3.83103 8.17031 3.17812 7.99152 2.6096 7.65402L2.475 7.57366L1.07277 7.94129L1.44643 6.57321L1.35804 6.43259C0.986384 5.84196 0.791518 5.16094 0.791518 4.45982C0.791518 2.41674 2.45491 0.753348 4.5 0.753348C5.4904 0.753348 6.42054 1.13906 7.11964 1.84018C7.81875 2.54129 8.24866 3.47143 8.24665 4.46183C8.24665 6.50692 6.54107 8.17031 4.49799 8.17031ZM6.53103 5.39397C6.42054 5.33772 5.8721 5.06853 5.76964 5.03237C5.66719 4.9942 5.59286 4.97612 5.51853 5.08862C5.4442 5.20112 5.23125 5.45022 5.16496 5.52656C5.10067 5.60089 5.03438 5.61094 4.92388 5.55469C4.26897 5.22723 3.83906 4.97009 3.40714 4.22879C3.29263 4.03192 3.52165 4.04598 3.7346 3.62009C3.77076 3.54576 3.75268 3.48147 3.72455 3.42522C3.69643 3.36897 3.47344 2.82054 3.38103 2.59754C3.29063 2.38058 3.19821 2.41071 3.12991 2.4067C3.06562 2.40268 2.99129 2.40268 2.91696 2.40268C2.84263 2.40268 2.7221 2.4308 2.61964 2.54129C2.51719 2.65379 2.22991 2.92299 2.22991 3.47143C2.22991 4.01987 2.62969 4.55022 2.68393 4.62455C2.74018 4.69888 3.46942 5.82388 4.58839 6.30804C5.29554 6.61339 5.57277 6.63951 5.92634 6.58728C6.14129 6.55513 6.58527 6.31808 6.67768 6.05692C6.77009 5.79576 6.77009 5.57277 6.74196 5.52656C6.71585 5.47634 6.64152 5.44821 6.53103 5.39397Z" fill="black"/>
</svg>
