<svg width="17" height="17" viewBox="0 0 17 17" fill="none" xmlns="http://www.w3.org/2000/svg">
<path fill-rule="evenodd" clip-rule="evenodd" d="M8.0642 10.0238C8.28743 10.1911 8.62227 10.2468 8.90131 10.2468C9.29196 10.2468 9.6826 10.0796 9.96164 9.80071C10.2407 9.52181 10.4081 9.1314 10.4081 8.74094C10.4081 8.46203 10.2965 8.18313 10.1849 7.90423C10.0175 7.68111 9.79422 7.45798 9.51518 7.34642C9.23615 7.23486 8.95711 7.17897 8.67808 7.23475C8.39904 7.29053 8.12001 7.45798 7.89678 7.62533C7.67355 7.84845 7.56194 8.07152 7.50613 8.4062C7.45033 8.6851 7.50613 9.01978 7.61774 9.24291C7.61774 9.57759 7.84098 9.85644 8.0642 10.0238ZM7.56193 6.73278C7.95258 6.45388 8.45485 6.34221 8.90131 6.34221C9.23615 6.34221 9.51518 6.39816 9.85003 6.50972C10.1291 6.62128 10.4081 6.78856 10.6313 7.01169C10.8546 7.23481 11.022 7.51366 11.1336 7.79256C11.2452 8.07146 11.301 8.40625 11.301 8.74094C11.301 9.24296 11.1336 9.68915 10.9104 10.0796C10.6313 10.4701 10.2407 10.8048 9.79422 10.9722C9.34776 11.1395 8.8455 11.1951 8.39904 11.0836C7.95258 10.972 7.50613 10.749 7.17129 10.4144C6.83644 10.0797 6.61322 9.63332 6.5016 9.18707C6.38999 8.74083 6.4458 8.2388 6.61322 7.79256C6.83644 7.4021 7.11548 7.01169 7.56193 6.73278ZM11.9149 6.50972C11.9707 6.39816 12.0265 6.34237 12.0265 6.23081C12.0265 6.06347 11.9707 5.9518 11.8591 5.84024C11.7475 5.72868 11.6358 5.67301 11.4684 5.67301C11.3568 5.67301 11.2452 5.72863 11.1894 5.78441C11.0778 5.84019 11.022 5.95169 10.9662 6.00747C10.9104 6.11903 10.9104 6.23065 10.9104 6.34221C10.9104 6.45377 10.9662 6.56533 11.0778 6.62111C11.1336 6.67689 11.2452 6.73284 11.3568 6.78862C11.4684 6.78862 11.58 6.78856 11.6917 6.73278C11.8033 6.62122 11.8591 6.5655 11.9149 6.50972ZM12.3055 12.1433C12.6404 11.8086 12.8078 11.3626 12.8078 10.9163V6.56528C12.8078 6.11903 12.6404 5.67295 12.3055 5.33827C11.9707 5.00359 11.5242 4.8363 11.0778 4.8363H6.72483C6.27837 4.8363 5.83192 5.00359 5.49708 5.33827C5.16223 5.67295 4.99481 6.11903 4.99481 6.56528V10.9163C4.99481 11.3626 5.16223 11.8086 5.49708 12.1433C5.83192 12.478 6.27837 12.6456 6.72483 12.6456H11.0778C11.5242 12.7014 11.9707 12.478 12.3055 12.1433ZM4.82739 4.6688C5.32966 4.16677 5.99934 3.88792 6.72483 3.88792H11.0778C11.8033 3.88792 12.473 4.16677 12.9752 4.6688C13.4775 5.17082 13.7565 5.84013 13.7565 6.56528V10.9163C13.7565 11.6415 13.4775 12.3108 12.9752 12.8128C12.473 13.3148 11.8033 13.5937 11.0778 13.5937H6.72483C5.99934 13.5937 5.32966 13.3148 4.82739 12.8128C4.32513 12.3108 4.0461 11.6415 4.0461 10.9163V6.56528C4.0461 5.89591 4.32513 5.17082 4.82739 4.6688ZM16.8817 8.74094C16.8817 4.33428 13.3101 0.76416 8.90131 0.76416C4.49255 0.76416 0.920898 4.33428 0.920898 8.74094C0.920898 13.1476 4.49255 16.7174 8.90131 16.7174C13.3101 16.7732 16.8817 13.2034 16.8817 8.74094Z" fill="white"/>
</svg>
