<svg width="9" height="9" viewBox="0 0 9 9" fill="none" xmlns="http://www.w3.org/2000/svg">
<path d="M0 4.5C0 2.01472 2.01472 0 4.5 0C6.98528 0 9 2.01472 9 4.5C9 6.98528 6.98528 9 4.5 9C2.01472 9 0 6.98528 0 4.5ZM4.21875 0.605561C3.84219 0.720719 3.4676 1.06719 3.15717 1.64924C3.07666 1.80019 3.00226 1.96416 2.93496 2.13953C3.33162 2.22801 3.7634 2.28438 4.21875 2.30093V0.605561ZM2.38979 1.99093C2.47018 1.77489 2.56088 1.57197 2.66085 1.38454C2.76138 1.19604 2.8736 1.01948 2.99658 0.859697C2.51412 1.05917 2.07993 1.35177 1.71644 1.71509C1.91978 1.8185 2.14543 1.91125 2.38979 1.99093ZM1.9735 4.21875C1.99392 3.61687 2.07947 3.0446 2.21897 2.52691C1.89862 2.4227 1.603 2.2967 1.33901 2.15181C0.903603 2.73697 0.626842 3.44717 0.572388 4.21875H1.9735ZM2.76114 2.67685C2.636 3.14237 2.55654 3.66356 2.53635 4.21875H4.21875V2.86377C3.70699 2.8464 3.21585 2.78189 2.76114 2.67685ZM4.78125 2.86377V4.21875H6.46365C6.44345 3.66356 6.364 3.14237 6.23886 2.67685C5.78414 2.78189 5.29301 2.8464 4.78125 2.86377ZM2.53635 4.78125C2.55654 5.33644 2.636 5.85762 2.76114 6.32314C3.21585 6.21811 3.70699 6.1536 4.21875 6.13623V4.78125H2.53635ZM4.78125 4.78125V6.13623C5.29301 6.1536 5.78414 6.21811 6.23886 6.32314C6.364 5.85762 6.44345 5.33644 6.46365 4.78125H4.78125ZM2.93496 6.86046C3.00226 7.03583 3.07666 7.1998 3.15717 7.35075C3.4676 7.93281 3.84219 8.27927 4.21875 8.39443V6.69906C3.7634 6.71561 3.33162 6.77198 2.93496 6.86046ZM2.99659 8.1403C2.8736 7.98051 2.76137 7.80395 2.66085 7.61546C2.56088 7.42802 2.47018 7.22511 2.38979 7.00906C2.14543 7.08875 1.91978 7.1815 1.71644 7.28491C2.07993 7.64822 2.51412 7.94082 2.99659 8.1403ZM2.21897 6.47308C2.07947 5.95539 1.99392 5.38313 1.9735 4.78125H0.572388C0.626842 5.55282 0.903603 6.26302 1.33901 6.84818C1.603 6.7033 1.89862 6.5773 2.21897 6.47308ZM6.00341 8.1403C6.48588 7.94082 6.92006 7.64822 7.28355 7.28491C7.08022 7.1815 6.85457 7.08875 6.61021 7.00906C6.52982 7.22511 6.43912 7.42802 6.33915 7.61546C6.23862 7.80395 6.12639 7.98051 6.00341 8.1403ZM4.78125 6.69906V8.39443C5.1578 8.27927 5.5324 7.93281 5.84283 7.35075C5.92333 7.1998 5.99774 7.03583 6.06503 6.86046C5.66838 6.77198 5.23659 6.71561 4.78125 6.69906ZM6.78103 6.47308C7.10138 6.5773 7.397 6.7033 7.66099 6.84818C8.09639 6.26302 8.37315 5.55282 8.42761 4.78125H7.02649C7.00608 5.38313 6.92052 5.95539 6.78103 6.47308ZM8.42761 4.21875C8.37315 3.44717 8.09639 2.73697 7.66099 2.15181C7.397 2.2967 7.10138 2.4227 6.78103 2.52691C6.92052 3.0446 7.00608 3.61687 7.02649 4.21875H8.42761ZM6.33915 1.38454C6.43912 1.57197 6.52982 1.77489 6.61021 1.99093C6.85457 1.91125 7.08022 1.8185 7.28355 1.71509C6.92006 1.35177 6.48588 1.05917 6.00341 0.859696C6.12639 1.01948 6.23862 1.19604 6.33915 1.38454ZM6.06503 2.13953C5.99774 1.96416 5.92333 1.80019 5.84283 1.64924C5.5324 1.06719 5.1578 0.720719 4.78125 0.605561V2.30093C5.23659 2.28438 5.66838 2.22801 6.06503 2.13953Z" fill="black"/>
</svg>
