<svg width="17" height="17" viewBox="0 0 17 17" fill="none" xmlns="http://www.w3.org/2000/svg">
<path fill-rule="evenodd" clip-rule="evenodd" d="M10.3687 5.78441C9.47578 5.78441 8.75028 6.5095 8.75028 7.40199C8.75028 7.51355 8.75029 7.681 8.80609 7.79256C7.46672 7.73678 6.23897 7.06736 5.40186 6.06331C5.23444 6.28643 5.17864 6.56533 5.17864 6.90002C5.17864 7.45782 5.45767 7.95979 5.90413 8.23869C5.62509 8.23869 5.40186 8.12719 5.17864 8.01563C5.17864 8.79655 5.7367 9.46586 6.518 9.63321C6.40639 9.68899 6.23897 9.68904 6.07155 9.68904C5.95994 9.68904 5.84832 9.68904 5.73671 9.68904C5.95993 10.3584 6.57381 10.8047 7.29931 10.8047C6.74123 11.2509 6.01574 11.53 5.23444 11.53C5.12283 11.53 4.95541 11.53 4.84379 11.53C5.56929 11.9762 6.40639 12.255 7.35511 12.255C10.3687 12.255 12.0429 9.74493 12.0429 7.56949C12.0429 7.51371 12.0429 7.4022 12.0429 7.34642C12.3777 7.1233 12.6568 6.8444 12.88 6.50972C12.601 6.62128 12.2661 6.73284 11.9313 6.78862C12.2661 6.5655 12.5452 6.28654 12.6568 5.89608C12.3219 6.06342 11.9871 6.2306 11.5964 6.28638C11.2616 5.95169 10.8151 5.78441 10.3687 5.78441ZM8.80609 0.76416C13.2149 0.76416 16.7865 4.33428 16.7865 8.74094C16.7865 13.1476 13.2149 16.7174 8.80609 16.7174C4.39734 16.7174 0.825684 13.1476 0.825684 8.74094C0.825684 4.33428 4.39734 0.76416 8.80609 0.76416Z" fill="white"/>
</svg>
