<svg width="25" height="26" viewBox="0 0 25 26" fill="none" xmlns="http://www.w3.org/2000/svg">
<path d="M22.089 13.8659L12.5106 25L2.93227 13.8659C2.30049 13.1444 1.80284 12.2771 1.47067 11.3187C1.1385 10.3603 0.979002 9.3316 1.00221 8.29731C1.02543 7.26302 1.23085 6.24558 1.60555 5.30904C1.98025 4.37251 2.51611 3.53718 3.17938 2.85566C3.84265 2.17413 4.61897 1.66117 5.45944 1.34908C6.29992 1.03699 7.18635 0.932535 8.06292 1.04228C8.93948 1.15203 9.78719 1.47361 10.5527 1.98677C11.3181 2.49993 11.9848 3.19355 12.5106 4.02395C13.0388 3.19958 13.7062 2.51201 14.4711 2.0043C15.2361 1.49659 16.0821 1.17966 16.9562 1.07334C17.8303 0.96702 18.7137 1.07361 19.5511 1.38642C20.3885 1.69924 21.1619 2.21156 21.8228 2.89131C22.4837 3.57106 23.018 4.40361 23.3922 5.33686C23.7664 6.2701 23.9724 7.28396 23.9974 8.31496C24.0224 9.34596 23.8658 10.3719 23.5374 11.3286C23.2091 12.2853 22.716 13.1522 22.089 13.8749" stroke="#EC5B47" stroke-width="1.5" stroke-linecap="round" stroke-linejoin="round"/>
</svg>
