<svg width="20" height="19" viewBox="0 0 20 19" fill="none" xmlns="http://www.w3.org/2000/svg">
<path d="M17.5044 10.1134L10.0083 18L2.51221 10.1134C2.01777 9.60227 1.62831 8.98794 1.36835 8.30909C1.10839 7.63023 0.983567 6.90155 1.00173 6.16893C1.0199 5.43631 1.18067 4.71562 1.47391 4.05224C1.76715 3.38886 2.18652 2.79717 2.7056 2.31442C3.22468 1.83168 3.83223 1.46833 4.49 1.24727C5.14776 1.0262 5.84149 0.952212 6.5275 1.02995C7.21351 1.10769 7.87693 1.33547 8.476 1.69896C9.07506 2.06245 9.59679 2.55376 10.0083 3.14197C10.4216 2.55803 10.944 2.07101 11.5426 1.71138C12.1413 1.35175 12.8034 1.12726 13.4875 1.05195C14.1715 0.976639 14.8629 1.05214 15.5182 1.27372C16.1736 1.4953 16.7788 1.85819 17.2961 2.33968C17.8134 2.82117 18.2315 3.41089 18.5243 4.07194C18.8172 4.73299 18.9784 5.45114 18.998 6.18143C19.0175 6.91172 18.895 7.63844 18.638 8.31611C18.381 8.99377 17.9951 9.6078 17.5044 10.1197" stroke="#EC5B47" stroke-width="1.5" stroke-linecap="round" stroke-linejoin="round"/>
</svg>
