<svg width="22" height="20" viewBox="0 0 22 20" fill="none" xmlns="http://www.w3.org/2000/svg">
<path d="M3.00024 6H14.3392C14.6276 5.99997 14.9126 6.06229 15.1746 6.1827C15.4366 6.30311 15.6695 6.47876 15.8573 6.6976C16.0451 6.91645 16.1833 7.17331 16.2625 7.45059C16.3417 7.72786 16.3601 8.01898 16.3162 8.304L15.0612 16.456C14.9523 17.1644 14.5933 17.8105 14.0492 18.2771C13.5052 18.7438 12.812 19.0002 12.0952 19H5.24324C4.52664 19 3.83372 18.7434 3.28987 18.2768C2.74602 17.8102 2.38716 17.1643 2.27824 16.456L1.02324 8.304C0.979407 8.01898 0.997728 7.72786 1.07694 7.45059C1.15616 7.17331 1.2944 6.91645 1.48218 6.6976C1.66997 6.47876 1.90286 6.30311 2.16488 6.1827C2.42691 6.06229 2.71187 5.99997 3.00024 6Z" stroke="#EC5B47" stroke-width="1.5" stroke-linecap="round" stroke-linejoin="round"/>
<path d="M5.66943 9V4C5.66943 3.20435 5.9855 2.44129 6.54811 1.87868C7.11072 1.31607 7.87378 1 8.66943 1C9.46508 1 10.2281 1.31607 10.7908 1.87868C11.3534 2.44129 11.6694 3.20435 11.6694 4V9" stroke="#EC5B47" stroke-width="1.5" stroke-linecap="round" stroke-linejoin="round"/>
<rect x="11.6562" width="10" height="10" rx="5" fill="#B6311F"/>
<path d="M15.918 4.73047H16.4805C16.6992 4.73047 16.8802 4.69271 17.0234 4.61719C17.1693 4.54167 17.2773 4.4375 17.3477 4.30469C17.418 4.17188 17.4531 4.01953 17.4531 3.84766C17.4531 3.66797 17.4206 3.51432 17.3555 3.38672C17.293 3.25651 17.1966 3.15625 17.0664 3.08594C16.9388 3.01562 16.776 2.98047 16.5781 2.98047C16.4115 2.98047 16.2604 3.01432 16.125 3.08203C15.9922 3.14714 15.8867 3.24089 15.8086 3.36328C15.7305 3.48307 15.6914 3.6263 15.6914 3.79297H14.7461C14.7461 3.49089 14.8255 3.22266 14.9844 2.98828C15.1432 2.75391 15.3594 2.57031 15.6328 2.4375C15.9089 2.30208 16.2188 2.23438 16.5625 2.23438C16.9297 2.23438 17.25 2.29557 17.5234 2.41797C17.7995 2.53776 18.0143 2.71745 18.168 2.95703C18.3216 3.19661 18.3984 3.49349 18.3984 3.84766C18.3984 4.00911 18.3607 4.17318 18.2852 4.33984C18.2096 4.50651 18.0977 4.65885 17.9492 4.79688C17.8008 4.93229 17.6159 5.04297 17.3945 5.12891C17.1732 5.21224 16.9167 5.25391 16.625 5.25391H15.918V4.73047ZM15.918 5.46484V4.94922H16.625C16.9583 4.94922 17.2422 4.98828 17.4766 5.06641C17.7135 5.14453 17.9062 5.2526 18.0547 5.39062C18.2031 5.52604 18.3112 5.68099 18.3789 5.85547C18.4492 6.02995 18.4844 6.21484 18.4844 6.41016C18.4844 6.67578 18.4362 6.91276 18.3398 7.12109C18.2461 7.32682 18.112 7.5013 17.9375 7.64453C17.763 7.78776 17.5586 7.89583 17.3242 7.96875C17.0924 8.04167 16.8398 8.07812 16.5664 8.07812C16.3216 8.07812 16.0872 8.04427 15.8633 7.97656C15.6393 7.90885 15.4388 7.80859 15.2617 7.67578C15.0846 7.54036 14.944 7.3724 14.8398 7.17188C14.7383 6.96875 14.6875 6.73438 14.6875 6.46875H15.6289C15.6289 6.63802 15.668 6.78776 15.7461 6.91797C15.8268 7.04557 15.9388 7.14583 16.082 7.21875C16.2279 7.29167 16.3945 7.32812 16.582 7.32812C16.7799 7.32812 16.9505 7.29297 17.0938 7.22266C17.237 7.15234 17.3464 7.04818 17.4219 6.91016C17.5 6.77214 17.5391 6.60547 17.5391 6.41016C17.5391 6.1888 17.4961 6.00911 17.4102 5.87109C17.3242 5.73307 17.2018 5.63151 17.043 5.56641C16.8841 5.4987 16.6966 5.46484 16.4805 5.46484H15.918Z" fill="#FEF3F2"/>
</svg>
