<svg width="26" height="26" viewBox="0 0 26 26" fill="none" xmlns="http://www.w3.org/2000/svg">
<path d="M4.12955 7.66699H21.8704C22.3216 7.66695 22.7675 7.75005 23.1774 7.91059C23.5874 8.07114 23.9518 8.30534 24.2456 8.59713C24.5394 8.88892 24.7557 9.23141 24.8796 9.60111C25.0036 9.9708 25.0322 10.359 24.9636 10.739L23.0001 21.6083C22.8296 22.5529 22.2679 23.4143 21.4167 24.0365C20.5655 24.6587 19.481 25.0006 18.3595 25.0003H7.63893C6.51774 25.0003 5.43361 24.6582 4.58271 24.0361C3.7318 23.4139 3.17034 22.5527 2.99992 21.6083L1.03636 10.739C0.967781 10.359 0.996445 9.9708 1.12039 9.60111C1.24433 9.23141 1.46062 8.88892 1.75442 8.59713C2.04823 8.30534 2.4126 8.07114 2.82256 7.91059C3.23252 7.75005 3.67838 7.66695 4.12955 7.66699Z" stroke="#EC5B47" stroke-width="1.5" stroke-linecap="round" stroke-linejoin="round"/>
<path d="M8.30566 11.6667V5C8.30566 3.93913 8.80018 2.92172 9.68044 2.17157C10.5607 1.42143 11.7546 1 12.9994 1C14.2443 1 15.4382 1.42143 16.3184 2.17157C17.1987 2.92172 17.6932 3.93913 17.6932 5V11.6667" stroke="#EC5B47" stroke-width="1.5" stroke-linecap="round" stroke-linejoin="round"/>
</svg>
