<svg width="18" height="16" viewBox="0 0 18 16" fill="none" xmlns="http://www.w3.org/2000/svg">
<path d="M16.5789 13.1765C16.9439 13.1767 17.2948 13.3163 17.5589 13.5665C17.823 13.8167 17.9801 14.1583 17.9977 14.5204C18.0152 14.8825 17.8918 15.2375 17.6531 15.5117C17.4144 15.7859 17.0786 15.9584 16.7154 15.9934L16.5789 16H1.42105C1.05611 15.9998 0.705226 15.8602 0.441107 15.61C0.176989 15.3598 0.0198833 15.0182 0.00234544 14.6561C-0.0151925 14.2939 0.108182 13.939 0.346903 13.6648C0.585624 13.3905 0.921392 13.218 1.28463 13.1831L1.42105 13.1765H16.5789ZM16.5789 6.58824C16.9558 6.58824 17.3173 6.73697 17.5838 7.00173C17.8503 7.26649 18 7.62558 18 8C18 8.37442 17.8503 8.73351 17.5838 8.99827C17.3173 9.26303 16.9558 9.41177 16.5789 9.41177H1.42105C1.04417 9.41177 0.682716 9.26303 0.416217 8.99827C0.149718 8.73351 0 8.37442 0 8C0 7.62558 0.149718 7.26649 0.416217 7.00173C0.682716 6.73697 1.04417 6.58824 1.42105 6.58824H16.5789ZM16.5789 0C16.9558 0 17.3173 0.148739 17.5838 0.413496C17.8503 0.678254 18 1.03734 18 1.41176C18 1.78619 17.8503 2.14528 17.5838 2.41003C17.3173 2.67479 16.9558 2.82353 16.5789 2.82353H1.42105C1.04417 2.82353 0.682716 2.67479 0.416217 2.41003C0.149718 2.14528 0 1.78619 0 1.41176C0 1.03734 0.149718 0.678254 0.416217 0.413496C0.682716 0.148739 1.04417 0 1.42105 0H16.5789Z" fill="#DB4834"/>
</svg>
