<svg width="98" height="98" viewBox="0 0 98 98" fill="none" xmlns="http://www.w3.org/2000/svg">
<g clip-path="url(#clip0_312_1651)">
<path d="M47.5471 91.0722L49.0001 68.3408L50.4531 91.0722C50.5021 91.8721 49.898 92.5633 49.0926 92.6177C48.2926 92.6667 47.6015 92.0626 47.5471 91.2572C47.5416 91.1973 47.5416 91.132 47.5471 91.0722Z" fill="#EC5B47"/>
<path d="M50.4479 6.92136L48.9949 29.6527L47.5418 6.92136C47.4929 6.12138 48.0969 5.43025 48.9023 5.37583C49.7023 5.32685 50.3935 5.93091 50.4479 6.73633C50.4533 6.79619 50.4533 6.86694 50.4479 6.92136Z" fill="#EC5B47"/>
<path d="M6.92136 47.5465L29.6527 48.9995L6.92136 50.4471C6.12138 50.496 5.43025 49.892 5.37583 49.0865C5.32685 48.2866 5.93091 47.5954 6.73633 47.541C6.79619 47.5465 6.8615 47.5465 6.92136 47.5465Z" fill="#EC5B47"/>
<path d="M91.0712 50.4479L68.3398 48.9949L91.0712 47.5418C91.8712 47.4929 92.5623 48.0969 92.6167 48.9023C92.6657 49.7023 92.0616 50.3935 91.2562 50.4479C91.1964 50.4533 91.1311 50.4533 91.0712 50.4479Z" fill="#EC5B47"/>
<path d="M18.2194 77.723L35.3183 62.6758L20.2711 79.7746C19.7432 80.3787 18.8235 80.4386 18.2194 79.9052C17.6154 79.3719 17.5555 78.4577 18.0888 77.8536C18.1269 77.8101 18.1759 77.7611 18.2194 77.723Z" fill="#EC5B47"/>
<path d="M79.7746 20.2711L62.6758 35.3183L77.723 18.2194C78.2509 17.6154 79.1706 17.5555 79.7746 18.0888C80.3787 18.6167 80.4386 19.5364 79.9052 20.1405C79.8671 20.184 79.8182 20.233 79.7746 20.2711Z" fill="#EC5B47"/>
<path d="M20.2711 18.2194L35.3183 35.3183L18.2194 20.2711C17.6154 19.7432 17.5555 18.8235 18.0888 18.2194C18.6167 17.6154 19.5364 17.5555 20.1405 18.0888C20.184 18.1269 20.233 18.1759 20.2711 18.2194Z" fill="#EC5B47"/>
<path d="M77.723 79.7746L62.6758 62.6758L79.7746 77.723C80.3787 78.2509 80.4386 79.1706 79.9052 79.7746C79.3774 80.3787 78.4577 80.4386 77.8536 79.9052C77.8101 79.8671 77.7611 79.8182 77.723 79.7746Z" fill="#EC5B47"/>
<path d="M71.3494 93.1943L59.8613 68.999L73.9018 91.8066C74.3208 92.4922 74.1085 93.3847 73.4283 93.8038C72.7426 94.2228 71.8501 94.0106 71.4311 93.3303C71.3984 93.2868 71.3712 93.2432 71.3494 93.1943Z" fill="#EC5B47"/>
<path d="M26.6443 4.79968L38.1324 28.9949L24.092 6.18195C23.6729 5.49626 23.8852 4.60377 24.5654 4.18473C25.2511 3.7657 26.1436 3.97793 26.5626 4.65819C26.6007 4.70717 26.6225 4.75614 26.6443 4.79968Z" fill="#EC5B47"/>
<path d="M4.7987 71.3494L28.9939 59.8613L6.18098 73.9018C5.49528 74.3208 4.60279 74.1085 4.18375 73.4283C3.76472 72.7426 3.97696 71.8501 4.65721 71.4311C4.70619 71.3984 4.75517 71.3712 4.7987 71.3494Z" fill="#EC5B47"/>
<path d="M93.1933 26.6443L68.998 38.1324L91.8056 24.092C92.4913 23.6729 93.3838 23.8852 93.8028 24.5654C94.2218 25.2511 94.0096 26.1436 93.3293 26.5626C93.2858 26.6007 93.2423 26.6225 93.1933 26.6443Z" fill="#EC5B47"/>
<path d="M33.5493 96.0569L42.5341 70.8223L36.3302 96.8787C36.1452 97.6569 35.3615 98.1412 34.5779 97.9562C33.7997 97.7712 33.3153 96.9875 33.5004 96.2039C33.5167 96.1549 33.533 96.1059 33.5493 96.0569Z" fill="#EC5B47"/>
<path d="M64.4438 1.94259L55.459 27.1773L61.6629 1.12084C61.8479 0.342631 62.6316 -0.141709 63.4152 0.0433198C64.1934 0.228349 64.6778 1.012 64.4927 1.79565C64.4764 1.83919 64.4601 1.89361 64.4438 1.94259Z" fill="#EC5B47"/>
<path d="M1.94217 33.5497L27.1768 42.5345L1.11498 36.3361C0.336772 36.151 -0.147568 35.3674 0.0374605 34.5837C0.222489 33.8055 1.00614 33.3212 1.78979 33.5062C1.83877 33.5171 1.89319 33.5334 1.94217 33.5497Z" fill="#EC5B47"/>
<path d="M96.0569 64.4438L70.8223 55.459L96.8787 61.6629C97.6569 61.8479 98.1412 62.6316 97.9562 63.4152C97.7712 64.1934 96.9875 64.6778 96.2039 64.4927C96.1549 64.4764 96.1059 64.4601 96.0569 64.4438Z" fill="#EC5B47"/>
<path d="M32.0475 76.1006L41.7887 61.7881L34.578 77.5264C34.2406 78.2557 33.3808 78.5767 32.6461 78.2448C31.9169 77.9074 31.5958 77.0475 31.9278 76.3128C31.9604 76.2421 32.004 76.1659 32.0475 76.1006Z" fill="#EC5B47"/>
<path d="M65.9522 21.8927L56.2109 36.2106L63.4216 20.4723C63.759 19.7431 64.6189 19.422 65.3535 19.7539C66.0828 20.0914 66.4039 20.9512 66.0719 21.6859C66.0392 21.7566 65.9957 21.8328 65.9522 21.8927Z" fill="#EC5B47"/>
<path d="M21.8922 32.0471L36.2048 41.7883L20.4664 34.5722C19.7372 34.2348 19.4161 33.3749 19.7481 32.6403C20.0855 31.911 20.9453 31.59 21.68 31.9219C21.7562 31.96 21.8324 32.0035 21.8922 32.0471Z" fill="#EC5B47"/>
<path d="M76.1016 65.9522L61.7891 56.2109L77.5274 63.4216C78.2566 63.759 78.5777 64.6189 78.2457 65.3535C77.9083 66.0828 77.0485 66.4039 76.3138 66.0719C76.2431 66.0392 76.1669 65.9957 76.1016 65.9522Z" fill="#EC5B47"/>
<path d="M17.8429 56.1775L34.8492 52.9395L18.6211 58.9692C17.8646 59.2468 17.0266 58.8658 16.749 58.1094C16.466 57.3584 16.8524 56.5203 17.6089 56.2373C17.6851 56.2156 17.7667 56.1938 17.8429 56.1775Z" fill="#EC5B47"/>
<path d="M80.1489 41.8214L63.1426 45.0539L79.3707 39.0242C80.1271 38.7466 80.9652 39.1276 81.2428 39.884C81.5203 40.6405 81.1394 41.4785 80.3829 41.7561C80.3067 41.7833 80.2251 41.8051 80.1489 41.8214Z" fill="#EC5B47"/>
<path d="M41.8214 17.8495L45.0539 34.8558L39.0242 18.6277C38.7466 17.8767 39.1276 17.0332 39.884 16.7556C40.6405 16.4781 41.4785 16.859 41.7561 17.6155C41.7833 17.6862 41.8051 17.7733 41.8214 17.8495Z" fill="#EC5B47"/>
<path d="M56.1779 80.1499L52.9453 63.1436L58.9751 79.3717C59.2526 80.1281 58.8717 80.9662 58.1152 81.2437C57.3588 81.5213 56.5207 81.1403 56.2432 80.3839C56.216 80.3077 56.1888 80.2261 56.1779 80.1499Z" fill="#EC5B47"/>
<path d="M44.4768 66.2506L47.1652 56.9883L45.538 66.4955C45.489 66.7948 45.206 66.9907 44.9067 66.9417C44.6128 66.8928 44.4115 66.6098 44.4605 66.3105C44.4659 66.2887 44.4714 66.2669 44.4768 66.2506Z" fill="#EC5B47"/>
<path d="M53.5165 31.7483L50.8281 41.0106L52.4553 31.5034C52.5043 31.2095 52.7873 31.0082 53.0866 31.0571C53.3804 31.1061 53.5818 31.3891 53.5328 31.6884C53.5274 31.7102 53.5219 31.732 53.5165 31.7483Z" fill="#EC5B47"/>
<path d="M31.7475 44.4768L41.0098 47.1652L31.5026 45.538C31.2033 45.489 31.0073 45.206 31.0563 44.9067C31.1053 44.6128 31.3883 44.4115 31.6876 44.4605C31.7094 44.4659 31.7311 44.4714 31.7475 44.4768Z" fill="#EC5B47"/>
<path d="M66.2448 53.5223L56.9824 50.834L66.4896 52.4611C66.7835 52.5101 66.9849 52.7931 66.9359 53.0924C66.8869 53.3863 66.6039 53.5876 66.3046 53.5387C66.2883 53.5278 66.2665 53.5278 66.2448 53.5223Z" fill="#EC5B47"/>
<path d="M33.6033 58.0006L42.0547 53.3477L34.1801 58.9203C33.9352 59.0944 33.5924 59.0346 33.4182 58.7897C33.2441 58.5448 33.304 58.2019 33.5488 58.0278C33.5652 58.0224 33.5869 58.006 33.6033 58.0006Z" fill="#EC5B47"/>
<path d="M64.3948 39.9981L55.9434 44.651L63.8125 39.0784C64.0574 38.9043 64.4003 38.9641 64.5744 39.209C64.7486 39.4539 64.6887 39.7967 64.4438 39.9709C64.4275 39.9763 64.4112 39.9872 64.3948 39.9981Z" fill="#EC5B47"/>
<path d="M39.9977 33.6042L44.6506 42.0557L39.0725 34.1811C38.8984 33.9362 38.9583 33.5934 39.2031 33.4192C39.448 33.2451 39.7909 33.3049 39.965 33.5498C39.9759 33.5716 39.9868 33.5879 39.9977 33.6042Z" fill="#EC5B47"/>
<path d="M58.001 64.3948L53.3535 55.9434L58.9261 63.818C59.1003 64.0629 59.0404 64.4057 58.7955 64.5799C58.5507 64.754 58.2078 64.6941 58.0337 64.4492C58.0173 64.4275 58.0064 64.4112 58.001 64.3948Z" fill="#EC5B47"/>
</g>
<defs>
<clipPath id="clip0_312_1651">
<rect width="98" height="98" fill="white"/>
</clipPath>
</defs>
</svg>
