<svg width="53" height="53" viewBox="0 0 53 53" fill="none" xmlns="http://www.w3.org/2000/svg">
<path d="M26.5259 0.279297C28.5676 0.279421 30.5393 1.02315 32.0725 2.37142L32.4767 2.75205L34.309 4.5843C34.8118 5.08387 35.4685 5.39924 36.1727 5.47942L36.5271 5.50042H39.1521C41.2973 5.5003 43.3613 6.32092 44.9207 7.79399C46.4802 9.26706 47.417 11.2809 47.539 13.4227L47.5521 13.9004V16.5254C47.5521 17.2342 47.7936 17.9245 48.2294 18.4758L48.4656 18.7383L50.2952 20.5705C51.8118 22.0785 52.696 24.108 52.7677 26.2455C52.8394 28.3829 52.0932 30.4671 50.6811 32.0733L50.3005 32.4776L48.4682 34.3098C47.9687 34.8126 47.6533 35.4693 47.5731 36.1735L47.5521 36.5279V39.1529C47.5522 41.2981 46.7316 43.3621 45.2586 44.9215C43.7855 46.481 41.7716 47.4178 39.6299 47.5398L39.1521 47.5529H36.5271C35.8194 47.5532 35.1323 47.7917 34.5767 48.2302L34.3142 48.4664L32.482 50.2961C30.9741 51.8126 28.9445 52.6968 26.8071 52.7685C24.6697 52.8402 22.5854 52.094 20.9792 50.6819L20.575 50.3013L18.7427 48.469C18.2399 47.9695 17.5833 47.6541 16.879 47.5739L16.5246 47.5529H13.8996C11.7544 47.553 9.69046 46.7324 8.131 45.2594C6.57154 43.7863 5.63475 41.7724 5.51274 39.6307L5.49962 39.1529V36.5279C5.49938 35.8202 5.26081 35.1331 4.82237 34.5775L4.58612 34.315L2.75649 32.4828C1.23998 30.9749 0.355726 28.9453 0.284024 26.8079C0.212322 24.6705 0.958572 22.5862 2.37062 20.98L2.75124 20.5758L4.58349 18.7435C5.08306 18.2407 5.39843 17.5841 5.47862 16.8798L5.49962 16.5254V13.9004L5.51274 13.4227C5.62995 11.3632 6.50086 9.41889 7.95947 7.96028C9.41808 6.50167 11.3624 5.63076 13.4219 5.51355L13.8996 5.50042H16.5246C17.2324 5.50019 17.9194 5.26162 18.475 4.82317L18.7375 4.58692L20.5697 2.7573C21.3502 1.97213 22.2783 1.349 23.3004 0.923733C24.3226 0.498467 25.4188 0.279457 26.5259 0.279297ZM36.2305 19.3945C35.7382 18.9024 35.0707 18.626 34.3746 18.626C33.6786 18.626 33.011 18.9024 32.5187 19.3945L23.8746 28.036L20.4805 24.6445L20.2337 24.4267C19.7061 24.0187 19.043 23.8269 18.3791 23.8901C17.7152 23.9534 17.1002 24.267 16.6591 24.7672C16.2181 25.2674 15.9839 25.9168 16.0043 26.5834C16.0246 27.25 16.298 27.8839 16.7687 28.3563L22.0187 33.6063L22.2655 33.8242C22.7706 34.216 23.4012 34.41 24.0392 34.3699C24.6771 34.3298 25.2785 34.0583 25.7305 33.6063L36.2305 23.1063L36.4484 22.8595C36.8402 22.3545 37.0342 21.7238 36.9941 21.0859C36.954 20.4479 36.6825 19.8466 36.2305 19.3945Z" fill="#EC5B47"/>
</svg>
