<svg width="97" height="97" viewBox="0 0 97 97" fill="none" xmlns="http://www.w3.org/2000/svg">
<g clip-path="url(#clip0_312_1554)">
<path d="M47.5586 90.1882L47.5588 90.1882L47.5597 90.1748L48.4989 75.4816L49.438 90.1735C49.438 90.1737 49.438 90.1739 49.438 90.1741C49.4694 90.6911 49.0799 91.1377 48.5582 91.1737C48.0412 91.2045 47.5948 90.8144 47.5595 90.2924L47.5597 90.2924L47.5586 90.2808C47.556 90.2517 47.556 90.2173 47.5586 90.1882Z" fill="#F39200" stroke="#4A4242"/>
<path d="M49.4344 6.80112L49.4335 6.81004L49.4329 6.81898L48.4937 21.5122L47.5546 6.82032C47.5545 6.82012 47.5545 6.81991 47.5545 6.81971C47.5232 6.30272 47.9127 5.85617 48.4342 5.82008C48.9513 5.78927 49.3977 6.1794 49.433 6.70144L49.4329 6.70145L49.4339 6.713C49.4367 6.74371 49.4363 6.78178 49.4344 6.80112Z" fill="#F39200" stroke="#4A4242"/>
<path d="M6.67006 47.5581C6.73185 47.5618 6.79128 47.562 6.83495 47.562L21.4975 48.4993L6.82032 49.434C6.82014 49.434 6.81995 49.434 6.81977 49.434C6.30276 49.4654 5.85617 49.0759 5.82008 48.5543C5.78989 48.0476 6.16386 47.6088 6.67006 47.5581Z" fill="#F39200" stroke="#4A4242"/>
<path d="M90.1872 49.4339L90.1873 49.4337L90.1739 49.4329L75.4806 48.4937L90.1725 47.5546C90.1727 47.5545 90.1729 47.5545 90.1731 47.5545C90.6901 47.5232 91.1367 47.9127 91.1728 48.4343C91.2035 48.9514 90.8134 49.3977 90.2914 49.433L90.2914 49.4329L90.2798 49.4339C90.2507 49.4366 90.2164 49.4366 90.1872 49.4339Z" fill="#F39200" stroke="#4A4242"/>
<path d="M18.362 77.3061L18.363 77.3051L29.4062 67.587L19.6881 78.6302L19.6869 78.6315C19.3472 79.0202 18.7543 79.0598 18.3637 78.715C17.9713 78.3686 17.9344 77.7795 18.2783 77.39L18.2797 77.3883C18.3028 77.3619 18.3356 77.3292 18.362 77.3061Z" fill="#F39200" stroke="#4A4242"/>
<path d="M78.6303 19.6881L78.6292 19.6891L67.5861 29.4072L77.3042 18.364L77.3053 18.3627C77.645 17.974 78.238 17.9344 78.6286 18.2793L78.6305 18.2809C79.0193 18.6207 79.0588 19.2136 78.714 19.6042L78.7125 19.6059C78.6894 19.6323 78.6567 19.665 78.6303 19.6881Z" fill="#F39200" stroke="#4A4242"/>
<path d="M19.6871 18.363L19.6881 18.364L29.4062 29.4072L18.363 19.6891L18.363 19.6891L18.3617 19.6879C17.973 19.3482 17.9334 18.7552 18.2783 18.3646L18.28 18.3627C18.6197 17.974 19.2126 17.9344 19.6032 18.2793L19.6049 18.2807C19.6313 18.3038 19.6641 18.3366 19.6871 18.363L19.6871 18.363Z" fill="#F39200" stroke="#4A4242"/>
<path d="M77.3051 78.6312L77.3042 78.6302L67.5861 67.587L78.6292 77.3052L78.6305 77.3063C79.0193 77.646 79.0588 78.239 78.714 78.6296L78.7123 78.6315C78.3726 79.0202 77.7796 79.0598 77.389 78.715L77.3873 78.7135C77.361 78.6904 77.3282 78.6577 77.3051 78.6312Z" fill="#F39200" stroke="#4A4242"/>
<path d="M71.0778 92.0402L71.0779 92.0401L71.0726 92.0288L63.6501 76.3963L72.7205 91.1304C72.7207 91.1307 72.7208 91.1309 72.721 91.1312C72.9924 91.5761 72.8533 92.151 72.4171 92.4204C71.9718 92.6919 71.3965 92.5526 71.1274 92.1157L71.1154 92.0962L71.1017 92.0779C71.0859 92.057 71.0805 92.0463 71.0778 92.0402Z" fill="#F39200" stroke="#4A4242"/>
<path d="M25.8654 4.87239L25.8797 4.8956L25.8952 4.91549C25.8957 4.91635 25.8966 4.91802 25.8981 4.92073C25.9003 4.92482 25.9032 4.93029 25.9076 4.93923L25.915 4.95433L25.9218 4.96804L33.3388 20.589L24.2723 5.85764C24.2721 5.85744 24.272 5.85724 24.2719 5.85704C24.0004 5.41203 24.1394 4.83703 24.5757 4.5677C25.021 4.29617 25.5963 4.43552 25.8654 4.87239Z" fill="#F39200" stroke="#4A4242"/>
<path d="M4.87336 71.1284L4.881 71.1237L4.88847 71.1187C4.91487 71.1011 4.94321 71.085 4.9707 71.0711L20.5899 63.655L5.85862 72.7215C5.85838 72.7216 5.85814 72.7218 5.8579 72.7219C5.41292 72.9933 4.83801 72.8543 4.56869 72.418C4.29714 71.9728 4.43649 71.3975 4.87336 71.1284Z" fill="#F39200" stroke="#4A4242"/>
<path d="M92.0402 25.915L92.0401 25.9148L92.0288 25.9202L76.3963 33.3427L91.1304 24.2723C91.1307 24.2721 91.1309 24.272 91.1312 24.2718C91.5761 24.0004 92.1511 24.1394 92.4204 24.5757C92.6919 25.021 92.5526 25.5963 92.1157 25.8654L92.0801 25.8873L92.0576 25.907C92.0537 25.9089 92.0484 25.9114 92.0402 25.915Z" fill="#F39200" stroke="#4A4242"/>
<path d="M33.6794 95.2397L39.4769 78.9567L35.4727 95.7743L35.4727 95.7745C35.3535 96.2757 34.8475 96.5899 34.3397 96.4701C33.8453 96.3522 33.533 95.8578 33.6403 95.3568L33.6794 95.2397Z" fill="#F39200" stroke="#4A4242"/>
<path d="M63.3127 1.76043L57.5154 18.0429L61.5196 1.22525L61.5196 1.2251C61.6388 0.723992 62.1446 0.409782 62.6523 0.529446C63.1454 0.646887 63.4574 1.13875 63.3529 1.63828C63.3411 1.67258 63.3289 1.7105 63.3203 1.73721C63.3173 1.74652 63.3147 1.75447 63.3127 1.76043Z" fill="#F39200" stroke="#4A4242"/>
<path d="M1.7597 33.6799L18.0621 39.4844L1.21928 35.4786L1.21924 35.4785C0.718128 35.3594 0.403918 34.8536 0.523589 34.3458C0.642932 33.8448 1.14887 33.5307 1.65661 33.6506L1.6566 33.6507L1.66304 33.6521C1.68712 33.6575 1.72122 33.6672 1.7597 33.6799Z" fill="#F39200" stroke="#4A4242"/>
<path d="M95.2397 63.3139L78.9567 57.5164L95.7743 61.5206L95.7745 61.5206C96.2757 61.6398 96.5899 62.1458 96.4701 62.6536C96.3521 63.148 95.8578 63.4602 95.3568 63.3529L95.3076 63.3366L95.2397 63.3139Z" fill="#F39200" stroke="#4A4242"/>
<path d="M32.057 75.7425C32.0769 75.6998 32.1058 75.6486 32.1355 75.6038L38.4341 66.3495L33.7717 76.526C33.7715 76.5263 33.7714 76.5265 33.7713 76.5268C33.5527 76.9982 32.9976 77.2062 32.5211 76.9922C32.0505 76.7731 31.8431 76.2186 32.057 75.7425Z" fill="#F39200" stroke="#4A4242"/>
<path d="M64.8742 21.3752L64.8696 21.3816L64.8651 21.3881L58.5678 30.6441L63.2276 20.4734C63.2277 20.4731 63.2279 20.4729 63.228 20.4726C63.4466 20.0012 64.0016 19.7931 64.4781 20.0071C64.9487 20.2262 65.1562 20.7808 64.9422 21.2569C64.9216 21.3012 64.8949 21.3467 64.8742 21.3752Z" fill="#F39200" stroke="#4A4242"/>
<path d="M21.3757 32.1246L21.382 32.1292L21.3885 32.1336L30.6366 38.4279L20.4685 33.7658C20.4683 33.7657 20.4681 33.7656 20.4678 33.7655C19.9963 33.5469 19.7882 32.9918 20.0023 32.5153C20.2203 32.0469 20.7706 31.8392 21.2452 32.0482C21.3029 32.0774 21.3484 32.1048 21.3757 32.1246Z" fill="#F39200" stroke="#4A4242"/>
<path d="M75.7425 64.9422C75.6998 64.9224 75.6486 64.8935 75.6038 64.8637L66.3495 58.5652L76.526 63.2276C76.5262 63.2277 76.5265 63.2278 76.5267 63.2279C76.9982 63.4466 77.2063 64.0016 76.9922 64.4781C76.7731 64.9487 76.2186 65.1562 75.7425 64.9422Z" fill="#F39200" stroke="#4A4242"/>
<path d="M17.0476 57.3444L17.0476 57.3444L17.046 57.3403C16.8672 56.8656 17.1049 56.3293 17.5873 56.1385C17.6486 56.1213 17.7078 56.1058 17.7604 56.0944L28.7398 54.0039L18.2589 57.8982C18.2586 57.8984 18.2583 57.8985 18.258 57.8986C17.7649 58.079 17.2256 57.8297 17.0476 57.3444Z" fill="#F39200" stroke="#4A4242"/>
<path d="M79.2314 40.9054L68.2416 42.9943L78.7328 39.0962C78.7331 39.0961 78.7334 39.0959 78.7337 39.0958C79.2268 38.9155 79.7661 39.1648 79.9441 39.6501C80.1249 40.1427 79.8765 40.6817 79.3923 40.8606C79.3442 40.8777 79.2882 40.893 79.2314 40.9054Z" fill="#F39200" stroke="#4A4242"/>
<path d="M40.8614 17.6081L40.8613 17.6081L40.8641 17.6153C40.8764 17.6474 40.8911 17.7009 40.9054 17.7668L42.9943 28.7567L39.0958 18.2644C39.0957 18.2643 39.0957 18.2641 39.0956 18.264C38.9158 17.7767 39.1647 17.2323 39.6501 17.0542C40.1434 16.8732 40.6832 17.1225 40.8614 17.6081Z" fill="#F39200" stroke="#4A4242"/>
<path d="M56.0989 79.2611L56.0972 79.2497L56.0951 79.2384L54.005 68.2426L57.9031 78.7338C57.9032 78.7341 57.9034 78.7344 57.9035 78.7347C58.0838 79.2278 57.8345 79.767 57.3492 79.9451C56.8565 80.1259 56.3175 79.8775 56.1386 79.3931C56.1119 79.3182 56.1017 79.2808 56.0989 79.2611Z" fill="#F39200" stroke="#4A4242"/>
<path d="M44.5089 65.7506C44.5037 65.7433 44.5006 65.735 44.5001 65.7261L44.5009 65.7238L44.5036 65.7144L44.6999 65.0381L44.581 65.7331L44.5809 65.7331L44.5804 65.7367C44.5793 65.7429 44.5775 65.7467 44.5759 65.7493C44.574 65.7522 44.5711 65.7554 44.5669 65.7584C44.5587 65.7642 44.5466 65.7682 44.5306 65.7658C44.5239 65.7646 44.516 65.7607 44.5089 65.7506Z" fill="#F39200" stroke="#4A4242"/>
<path d="M52.4841 31.2492C52.4893 31.2565 52.4923 31.2648 52.4928 31.2736L52.4921 31.2759L52.4893 31.2854L52.293 31.9617L52.412 31.2667L52.412 31.2667L52.4124 31.2646C52.4135 31.2577 52.4173 31.2496 52.4277 31.2423C52.4378 31.2351 52.4496 31.2321 52.4624 31.234C52.4691 31.2352 52.4769 31.2391 52.4841 31.2492Z" fill="#F39200" stroke="#4A4242"/>
<path d="M31.2483 44.5089C31.2557 44.5037 31.2639 44.5006 31.2728 44.5001L31.2751 44.5009L31.2846 44.5036L31.9608 44.6999L31.2659 44.581L31.2659 44.5809L31.2623 44.5804C31.256 44.5793 31.2523 44.5775 31.2497 44.5759C31.2468 44.574 31.2435 44.5711 31.2406 44.5669C31.2348 44.5587 31.2307 44.5466 31.2331 44.5306C31.2344 44.5239 31.2383 44.516 31.2483 44.5089Z" fill="#F39200" stroke="#4A4242"/>
<path d="M65.6874 52.4888L65.0332 52.2989L65.7282 52.4179L65.7304 52.4182C65.7372 52.4193 65.7453 52.4231 65.7526 52.4335C65.7598 52.4437 65.7628 52.4555 65.7609 52.4683C65.7597 52.475 65.7558 52.4828 65.7457 52.4899C65.7405 52.4936 65.7349 52.4962 65.7289 52.4976C65.7164 52.4945 65.7065 52.4925 65.6999 52.4911C65.6952 52.4902 65.691 52.4894 65.6874 52.4888ZM65.6722 52.4861C65.6717 52.486 65.6718 52.486 65.6726 52.4862L65.6722 52.4861Z" fill="#F39200" stroke="#4A4242"/>
<path d="M33.4792 57.8718C33.4802 57.8661 33.4821 57.861 33.4846 57.8566L33.5017 57.8472L34.0947 57.5207L33.5427 57.9113L33.5417 57.912C33.5348 57.9169 33.5256 57.9198 33.5131 57.9176C33.5004 57.9155 33.491 57.9091 33.4849 57.9004C33.4799 57.8935 33.4771 57.8843 33.4792 57.8718Z" fill="#F39200" stroke="#4A4242"/>
<path d="M63.4774 39.1641L62.8816 39.4921L63.4509 39.0889L63.4517 39.0884C63.4586 39.0835 63.4678 39.0806 63.4803 39.0827C63.493 39.0849 63.5024 39.0913 63.5086 39.0999C63.5135 39.1068 63.5163 39.116 63.5142 39.1285C63.5131 39.135 63.5109 39.1406 63.5078 39.1454C63.4955 39.1526 63.4852 39.159 63.4774 39.1641Z" fill="#F39200" stroke="#4A4242"/>
<path d="M39.1625 33.5204L39.4967 34.1274L39.083 33.5434L39.083 33.5434L39.0825 33.5427C39.0776 33.5358 39.0747 33.5266 39.0769 33.5141C39.0791 33.5014 39.0854 33.492 39.0941 33.4858C39.101 33.4809 39.1102 33.478 39.1227 33.4802C39.1307 33.4816 39.1374 33.4846 39.1428 33.4889C39.1502 33.5011 39.1569 33.5117 39.1625 33.5204Z" fill="#F39200" stroke="#4A4242"/>
<path d="M57.8767 63.5196C57.8661 63.5178 57.8579 63.5131 57.8518 63.5065L57.8468 63.4973L57.5031 62.8723L57.9162 63.4561L57.9169 63.4571C57.9218 63.464 57.9247 63.4732 57.9225 63.4857C57.9203 63.4984 57.914 63.5078 57.9053 63.5139L58.1951 63.9214L57.9053 63.5139C57.8984 63.5188 57.8892 63.5217 57.8767 63.5196Z" fill="#F39200" stroke="#4A4242"/>
</g>
<defs>
<clipPath id="clip0_312_1554">
<rect width="97" height="97" fill="white"/>
</clipPath>
</defs>
</svg>
