<svg width="15" height="31" viewBox="0 0 15 31" fill="none" xmlns="http://www.w3.org/2000/svg">
<path d="M14.4264 30.3176C14.7937 29.8806 15 29.2879 15 28.6699C15 28.052 14.7937 27.4593 14.4264 27.0222L4.72885 15.4859L14.4264 3.94963C14.7833 3.51009 14.9807 2.92138 14.9763 2.31031C14.9718 1.69925 14.7658 1.11471 14.4025 0.682604C14.0393 0.2505 13.5479 0.0053997 13.0343 8.96454e-05C12.5206 -0.00522041 12.0257 0.229687 11.6562 0.654219L0.573598 13.8382C0.206323 14.2753 0 14.8679 0 15.4859C0 16.1039 0.206323 16.6966 0.573598 17.1336L11.6562 30.3176C12.0236 30.7546 12.5218 31 13.0413 31C13.5608 31 14.059 30.7546 14.4264 30.3176Z" fill="#DB4834"/>
</svg>
