<svg width="15" height="31" viewBox="0 0 15 31" fill="none" xmlns="http://www.w3.org/2000/svg">
<path d="M0.573598 0.682358C0.206324 1.1194 -8.51723e-08 1.71208 -8.51723e-08 2.33007C-8.51723e-08 2.94805 0.206324 3.54073 0.573598 3.97778L10.2711 15.5141L0.573598 27.0504C0.216732 27.4899 0.0192661 28.0786 0.0237298 28.6897C0.0281934 29.3008 0.23423 29.8853 0.597463 30.3174C0.960696 30.7495 1.45206 30.9946 1.96573 30.9999C2.4794 31.0052 2.97428 30.7703 3.34377 30.3458L14.4264 17.1618C14.7937 16.7247 15 16.1321 15 15.5141C15 14.8961 14.7937 14.3034 14.4264 13.8664L3.34377 0.682358C2.97638 0.245444 2.47817 0 1.95868 0C1.4392 0 0.940984 0.245444 0.573598 0.682358Z" fill="#DB4834"/>
</svg>
