<svg width="90" height="22" viewBox="0 0 90 22" fill="none" xmlns="http://www.w3.org/2000/svg">
<path fill-rule="evenodd" clip-rule="evenodd" d="M73 0H0V22H73H90L73 11L90 0H73Z" fill="#DB4834"/>
<path d="M6.9375 15V6.46875H10.1309C11.0957 6.46875 11.8535 6.65234 12.4043 7.01953C12.9551 7.38281 13.2305 7.95117 13.2305 8.72461C13.2305 9.19336 13.1191 9.57812 12.8965 9.87891C12.6777 10.1797 12.4043 10.3867 12.0762 10.5V10.5234C12.4785 10.6406 12.8086 10.8691 13.0664 11.209C13.3281 11.5449 13.459 11.9883 13.459 12.5391C13.459 13.3203 13.1699 13.9258 12.5918 14.3555C12.0137 14.7852 11.252 15 10.3066 15H6.9375ZM8.66602 13.7695H10.2773C10.7773 13.7695 11.1426 13.6523 11.373 13.418C11.6074 13.1797 11.7246 12.8594 11.7246 12.457C11.7246 12.0586 11.6074 11.7422 11.373 11.5078C11.1426 11.2734 10.7773 11.1562 10.2773 11.1562H8.66602V13.7695ZM8.66602 9.98438H10.1074C10.6035 9.98438 10.959 9.88281 11.1738 9.67969C11.3926 9.47656 11.502 9.19531 11.502 8.83594C11.502 8.47266 11.3926 8.19336 11.1738 7.99805C10.9551 7.80273 10.5996 7.70508 10.1074 7.70508H8.66602V9.98438ZM14.4551 11.9531V11.7656C14.4551 10.8047 14.7461 10.0293 15.3281 9.43945C15.9102 8.8457 16.6602 8.54883 17.5781 8.54883C18.5039 8.54883 19.2266 8.82617 19.7461 9.38086C20.2695 9.93555 20.5312 10.6973 20.5312 11.666V12.2754H15.6152V11.1914H18.8496V11.0859C18.8457 10.7344 18.7383 10.4258 18.5273 10.1602C18.3164 9.89453 17.9961 9.76172 17.5664 9.76172C17.1055 9.76172 16.752 9.94141 16.5059 10.3008C16.2598 10.6562 16.1367 11.125 16.1367 11.707V12.0117C16.1367 12.5859 16.2676 13.0527 16.5293 13.4121C16.7949 13.7676 17.1895 13.9453 17.7129 13.9453C18.0605 13.9453 18.3633 13.8613 18.6211 13.6934C18.8789 13.5254 19.0879 13.332 19.248 13.1133L20.4082 13.9102C20.209 14.2617 19.873 14.5605 19.4004 14.8066C18.9316 15.0527 18.375 15.1758 17.7305 15.1758C16.6992 15.1758 15.8945 14.8809 15.3164 14.291C14.7422 13.6973 14.4551 12.918 14.4551 11.9531ZM21.2988 13.043H22.9688V13.1309C22.9688 13.4355 23.0762 13.6602 23.291 13.8047C23.5059 13.9492 23.7949 14.0215 24.1582 14.0215C24.5332 14.0215 24.8145 13.9551 25.002 13.8223C25.1934 13.6855 25.2891 13.502 25.2891 13.2715C25.2891 13.041 25.1973 12.8711 25.0137 12.7617C24.8301 12.6484 24.377 12.5215 23.6543 12.3809C22.9043 12.2363 22.3535 12.0078 22.002 11.6953C21.6504 11.3789 21.4746 10.9688 21.4746 10.4648C21.4746 9.88672 21.7148 9.42188 22.1953 9.07031C22.6758 8.71875 23.3262 8.54297 24.1465 8.54297C24.9629 8.54297 25.6152 8.72461 26.1035 9.08789C26.5957 9.45117 26.8418 9.9375 26.8418 10.5469V10.6172H25.1777V10.5352C25.1777 10.2773 25.0918 10.0742 24.9199 9.92578C24.752 9.77734 24.4922 9.70312 24.1406 9.70312C23.7891 9.70312 23.5332 9.76367 23.373 9.88477C23.2168 10.0059 23.1387 10.1621 23.1387 10.3535C23.1387 10.5488 23.2305 10.7051 23.4141 10.8223C23.5977 10.9395 24.0605 11.0684 24.8027 11.209C25.5488 11.3535 26.0957 11.5801 26.4434 11.8887C26.7949 12.1973 26.9707 12.6191 26.9707 13.1543C26.9707 13.7715 26.7324 14.2637 26.2559 14.6309C25.7832 14.9941 25.0859 15.1758 24.1641 15.1758C23.2461 15.1758 22.5391 14.9941 22.043 14.6309C21.5469 14.2637 21.2988 13.7559 21.2988 13.1074V13.043ZM27.4102 9.94336V8.72461H31.2715V9.94336H27.4102ZM28.3828 13.1836V9.38086L28.3887 9.21094V7.34766H30.0703V13.1602C30.0703 13.4375 30.123 13.6328 30.2285 13.7461C30.334 13.8555 30.4844 13.9102 30.6797 13.9102C30.7773 13.9102 30.873 13.8984 30.9668 13.875C31.0605 13.8516 31.1523 13.8223 31.2422 13.7871V14.9941C31.1484 15.041 31.0195 15.082 30.8555 15.1172C30.6914 15.1562 30.5137 15.1758 30.3223 15.1758C29.7363 15.1758 29.2656 15.0156 28.9102 14.6953C28.5586 14.375 28.3828 13.8711 28.3828 13.1836ZM34.9277 12.5801V12.4453H36.6973V12.5625C36.6973 12.9922 36.8418 13.3164 37.1309 13.5352C37.4238 13.75 37.8301 13.8574 38.3496 13.8574C38.8691 13.8574 39.2676 13.7559 39.5449 13.5527C39.8223 13.3457 39.9609 13.0742 39.9609 12.7383C39.9609 12.3984 39.834 12.1367 39.5801 11.9531C39.3262 11.7695 38.752 11.5684 37.8574 11.3496C36.9238 11.1191 36.2246 10.8066 35.7598 10.4121C35.2988 10.0137 35.0684 9.46289 35.0684 8.75977C35.0684 8.02148 35.3574 7.42578 35.9355 6.97266C36.5137 6.51953 37.3008 6.29297 38.2969 6.29297C39.2852 6.29297 40.0762 6.53125 40.6699 7.00781C41.2637 7.48438 41.5605 8.09961 41.5605 8.85352V8.98242H39.8145V8.86523C39.8145 8.49023 39.6875 8.18945 39.4336 7.96289C39.1797 7.73242 38.8008 7.61719 38.2969 7.61719C37.8008 7.61719 37.4336 7.70898 37.1953 7.89258C36.957 8.07227 36.8379 8.31055 36.8379 8.60742C36.8379 8.92773 36.959 9.16602 37.2012 9.32227C37.4434 9.47852 37.9902 9.66406 38.8418 9.87891C39.7715 10.1172 40.4844 10.4434 40.9805 10.8574C41.4766 11.2676 41.7246 11.8574 41.7246 12.627C41.7246 13.4121 41.418 14.0332 40.8047 14.4902C40.1914 14.9473 39.373 15.1758 38.3496 15.1758C37.334 15.1758 36.5098 14.9512 35.877 14.502C35.2441 14.0488 34.9277 13.4082 34.9277 12.5801ZM42.5801 11.9531V11.7656C42.5801 10.8047 42.8711 10.0293 43.4531 9.43945C44.0352 8.8457 44.7852 8.54883 45.7031 8.54883C46.6289 8.54883 47.3516 8.82617 47.8711 9.38086C48.3945 9.93555 48.6562 10.6973 48.6562 11.666V12.2754H43.7402V11.1914H46.9746V11.0859C46.9707 10.7344 46.8633 10.4258 46.6523 10.1602C46.4414 9.89453 46.1211 9.76172 45.6914 9.76172C45.2305 9.76172 44.877 9.94141 44.6309 10.3008C44.3848 10.6562 44.2617 11.125 44.2617 11.707V12.0117C44.2617 12.5859 44.3926 13.0527 44.6543 13.4121C44.9199 13.7676 45.3145 13.9453 45.8379 13.9453C46.1855 13.9453 46.4883 13.8613 46.7461 13.6934C47.0039 13.5254 47.2129 13.332 47.373 13.1133L48.5332 13.9102C48.334 14.2617 47.998 14.5605 47.5254 14.8066C47.0566 15.0527 46.5 15.1758 45.8555 15.1758C44.8242 15.1758 44.0195 14.8809 43.4414 14.291C42.8672 13.6973 42.5801 12.918 42.5801 11.9531ZM49.8398 15V6.01758H51.5273V15H49.8398ZM53.168 15V6.01758H54.8555V15H53.168ZM56.127 11.9531V11.7656C56.127 10.8047 56.418 10.0293 57 9.43945C57.582 8.8457 58.332 8.54883 59.25 8.54883C60.1758 8.54883 60.8984 8.82617 61.418 9.38086C61.9414 9.93555 62.2031 10.6973 62.2031 11.666V12.2754H57.2871V11.1914H60.5215V11.0859C60.5176 10.7344 60.4102 10.4258 60.1992 10.1602C59.9883 9.89453 59.668 9.76172 59.2383 9.76172C58.7773 9.76172 58.4238 9.94141 58.1777 10.3008C57.9316 10.6562 57.8086 11.125 57.8086 11.707V12.0117C57.8086 12.5859 57.9395 13.0527 58.2012 13.4121C58.4668 13.7676 58.8613 13.9453 59.3848 13.9453C59.7324 13.9453 60.0352 13.8613 60.293 13.6934C60.5508 13.5254 60.7598 13.332 60.9199 13.1133L62.0801 13.9102C61.8809 14.2617 61.5449 14.5605 61.0723 14.8066C60.6035 15.0527 60.0469 15.1758 59.4023 15.1758C58.3711 15.1758 57.5664 14.8809 56.9883 14.291C56.4141 13.6973 56.127 12.918 56.127 11.9531ZM63.3633 15V8.72461H64.9629L65.0039 9.42773H65.0332C65.166 9.19336 65.3457 8.99023 65.5723 8.81836C65.8027 8.64258 66.0664 8.55469 66.3633 8.55469C66.4453 8.55469 66.5293 8.56445 66.6152 8.58398C66.7012 8.60352 66.7617 8.62109 66.7969 8.63672V10.0898C66.7266 10.0742 66.6504 10.0625 66.5684 10.0547C66.4902 10.043 66.4043 10.0371 66.3105 10.0371C66.0176 10.0371 65.7598 10.1211 65.5371 10.2891C65.3184 10.4531 65.1582 10.6582 65.0566 10.9043V15H63.3633Z" fill="white"/>
</svg>
