<svg width="90" height="22" viewBox="0 0 90 22" fill="none" xmlns="http://www.w3.org/2000/svg">
<path fill-rule="evenodd" clip-rule="evenodd" d="M73 0H0V22H73H90L73 11L90 0H73Z" fill="#2E2E2E"/>
<path d="M2.60938 10.9922V10.4766C2.60938 9.12891 2.9707 8.0957 3.69336 7.37695C4.41992 6.6543 5.35352 6.29297 6.49414 6.29297C7.63867 6.29297 8.57422 6.6543 9.30078 7.37695C10.0312 8.0957 10.3965 9.12891 10.3965 10.4766V10.9922C10.3965 12.3398 10.0312 13.375 9.30078 14.0977C8.57422 14.8164 7.63867 15.1758 6.49414 15.1758C5.35352 15.1758 4.41992 14.8164 3.69336 14.0977C2.9707 13.375 2.60938 12.3398 2.60938 10.9922ZM4.39648 11.1035C4.39648 11.998 4.58594 12.6777 4.96484 13.1426C5.34766 13.6074 5.85938 13.8398 6.5 13.8398C7.14062 13.8398 7.65234 13.6074 8.03516 13.1426C8.41797 12.6777 8.60938 11.998 8.60938 11.1035V10.3711C8.60938 9.47266 8.41797 8.79102 8.03516 8.32617C7.65234 7.86133 7.13867 7.62891 6.49414 7.62891C5.85742 7.62891 5.34766 7.86133 4.96484 8.32617C4.58594 8.79102 4.39648 9.47266 4.39648 10.3711V11.1035ZM11.75 12.5625V8.72461H13.4375V12.6035C13.4375 13.0566 13.5312 13.375 13.7188 13.5586C13.9062 13.7422 14.1641 13.834 14.4922 13.834C14.7812 13.834 15.0391 13.752 15.2656 13.5879C15.4922 13.4199 15.666 13.209 15.7871 12.9551V8.72461H17.4746V15H15.8809L15.834 14.2734H15.8047C15.6094 14.5391 15.3477 14.7461 15.0195 14.8945C14.6914 15.043 14.3301 15.1172 13.9355 15.1172C13.2871 15.1172 12.7598 14.9219 12.3535 14.5312C11.9512 14.1367 11.75 13.4805 11.75 12.5625ZM18.2773 9.94336V8.72461H22.1387V9.94336H18.2773ZM19.25 13.1836V9.38086L19.2559 9.21094V7.34766H20.9375V13.1602C20.9375 13.4375 20.9902 13.6328 21.0957 13.7461C21.2012 13.8555 21.3516 13.9102 21.5469 13.9102C21.6445 13.9102 21.7402 13.8984 21.834 13.875C21.9277 13.8516 22.0195 13.8223 22.1094 13.7871V14.9941C22.0156 15.041 21.8867 15.082 21.7227 15.1172C21.5586 15.1562 21.3809 15.1758 21.1895 15.1758C20.6035 15.1758 20.1328 15.0156 19.7773 14.6953C19.4258 14.375 19.25 13.8711 19.25 13.1836ZM25.7832 11.9531V11.7656C25.7832 10.793 26.082 10.0137 26.6797 9.42773C27.2773 8.8418 28.0605 8.54883 29.0293 8.54883C30.002 8.54883 30.7871 8.8418 31.3848 9.42773C31.9824 10.0137 32.2812 10.793 32.2812 11.7656V11.9531C32.2812 12.9258 31.9824 13.707 31.3848 14.2969C30.7871 14.8828 30.002 15.1758 29.0293 15.1758C28.0605 15.1758 27.2773 14.8828 26.6797 14.2969C26.082 13.707 25.7832 12.9258 25.7832 11.9531ZM27.5117 11.7012V12.0176C27.5117 12.6035 27.6426 13.0645 27.9043 13.4004C28.166 13.7363 28.541 13.9043 29.0293 13.9043C29.5215 13.9043 29.8965 13.7363 30.1543 13.4004C30.416 13.0645 30.5469 12.6035 30.5469 12.0176V11.7012C30.5469 11.1191 30.4141 10.6602 30.1484 10.3242C29.8867 9.98828 29.5137 9.82031 29.0293 9.82031C28.5449 9.82031 28.1699 9.98828 27.9043 10.3242C27.6426 10.6602 27.5117 11.1191 27.5117 11.7012ZM33.752 15V8.29688C33.752 7.50391 33.9766 6.90625 34.4258 6.50391C34.8789 6.10156 35.4668 5.90039 36.1895 5.90039C36.3301 5.90039 36.4668 5.9082 36.5996 5.92383C36.7363 5.93945 36.8613 5.96289 36.9746 5.99414L36.9219 7.22461C36.8438 7.20898 36.7598 7.19531 36.6699 7.18359C36.5801 7.17188 36.4863 7.16602 36.3887 7.16602C36.0918 7.16602 35.8594 7.26172 35.6914 7.45312C35.5234 7.64453 35.4395 7.93359 35.4395 8.32031V9.24023V9.36914V15H33.752ZM32.8789 9.94336V8.72461H34.4141H34.6543H36.6113V9.94336H32.8789ZM39.8926 13.043H41.5625V13.1309C41.5625 13.4355 41.6699 13.6602 41.8848 13.8047C42.0996 13.9492 42.3887 14.0215 42.752 14.0215C43.127 14.0215 43.4082 13.9551 43.5957 13.8223C43.7871 13.6855 43.8828 13.502 43.8828 13.2715C43.8828 13.041 43.791 12.8711 43.6074 12.7617C43.4238 12.6484 42.9707 12.5215 42.248 12.3809C41.498 12.2363 40.9473 12.0078 40.5957 11.6953C40.2441 11.3789 40.0684 10.9688 40.0684 10.4648C40.0684 9.88672 40.3086 9.42188 40.7891 9.07031C41.2695 8.71875 41.9199 8.54297 42.7402 8.54297C43.5566 8.54297 44.209 8.72461 44.6973 9.08789C45.1895 9.45117 45.4355 9.9375 45.4355 10.5469V10.6172H43.7715V10.5352C43.7715 10.2773 43.6855 10.0742 43.5137 9.92578C43.3457 9.77734 43.0859 9.70312 42.7344 9.70312C42.3828 9.70312 42.127 9.76367 41.9668 9.88477C41.8105 10.0059 41.7324 10.1621 41.7324 10.3535C41.7324 10.5488 41.8242 10.7051 42.0078 10.8223C42.1914 10.9395 42.6543 11.0684 43.3965 11.209C44.1426 11.3535 44.6895 11.5801 45.0371 11.8887C45.3887 12.1973 45.5645 12.6191 45.5645 13.1543C45.5645 13.7715 45.3262 14.2637 44.8496 14.6309C44.377 14.9941 43.6797 15.1758 42.7578 15.1758C41.8398 15.1758 41.1328 14.9941 40.6367 14.6309C40.1406 14.2637 39.8926 13.7559 39.8926 13.1074V13.043ZM46.0039 9.94336V8.72461H49.8652V9.94336H46.0039ZM46.9766 13.1836V9.38086L46.9824 9.21094V7.34766H48.6641V13.1602C48.6641 13.4375 48.7168 13.6328 48.8223 13.7461C48.9277 13.8555 49.0781 13.9102 49.2734 13.9102C49.3711 13.9102 49.4668 13.8984 49.5605 13.875C49.6543 13.8516 49.7461 13.8223 49.8359 13.7871V14.9941C49.7422 15.041 49.6133 15.082 49.4492 15.1172C49.2852 15.1562 49.1074 15.1758 48.916 15.1758C48.3301 15.1758 47.8594 15.0156 47.5039 14.6953C47.1523 14.375 46.9766 13.8711 46.9766 13.1836ZM50.4629 11.9531V11.7656C50.4629 10.793 50.7617 10.0137 51.3594 9.42773C51.957 8.8418 52.7402 8.54883 53.709 8.54883C54.6816 8.54883 55.4668 8.8418 56.0645 9.42773C56.6621 10.0137 56.9609 10.793 56.9609 11.7656V11.9531C56.9609 12.9258 56.6621 13.707 56.0645 14.2969C55.4668 14.8828 54.6816 15.1758 53.709 15.1758C52.7402 15.1758 51.957 14.8828 51.3594 14.2969C50.7617 13.707 50.4629 12.9258 50.4629 11.9531ZM52.1914 11.7012V12.0176C52.1914 12.6035 52.3223 13.0645 52.584 13.4004C52.8457 13.7363 53.2207 13.9043 53.709 13.9043C54.2012 13.9043 54.5762 13.7363 54.834 13.4004C55.0957 13.0645 55.2266 12.6035 55.2266 12.0176V11.7012C55.2266 11.1191 55.0938 10.6602 54.8281 10.3242C54.5664 9.98828 54.1934 9.82031 53.709 9.82031C53.2246 9.82031 52.8496 9.98828 52.584 10.3242C52.3223 10.6602 52.1914 11.1191 52.1914 11.7012ZM57.8691 11.9531V11.7656C57.8691 10.793 58.1582 10.0137 58.7363 9.42773C59.3184 8.8418 60.0977 8.54883 61.0742 8.54883C61.9961 8.54883 62.6973 8.77734 63.1777 9.23438C63.6621 9.6875 63.916 10.2168 63.9395 10.8223L63.9453 10.9043H62.2871V10.8457C62.2871 10.5527 62.1855 10.3047 61.9824 10.1016C61.7832 9.89453 61.4766 9.79102 61.0625 9.79102C60.5742 9.79102 60.207 9.96875 59.9609 10.3242C59.7188 10.6758 59.5977 11.1348 59.5977 11.7012V12.0176C59.5977 12.584 59.7168 13.0449 59.9551 13.4004C60.1934 13.7559 60.5605 13.9336 61.0566 13.9336C61.498 13.9336 61.8125 13.8281 62 13.6172C62.1914 13.4023 62.2871 13.1543 62.2871 12.873V12.8203H63.9395V12.8789C63.9395 13.4844 63.6914 14.0195 63.1953 14.4844C62.7031 14.9453 61.9961 15.1758 61.0742 15.1758C60.0977 15.1758 59.3184 14.8828 58.7363 14.2969C58.1582 13.7109 57.8691 12.9297 57.8691 11.9531ZM65.0703 15V6.01758H66.7578V11.0625L68.873 8.72461H70.7422L66.7578 12.9961V15H65.0703ZM69.0137 15L66.8398 12.0117L67.9414 10.7988L71.0293 15H69.0137Z" fill="white"/>
</svg>
