<svg width="38" height="38" viewBox="0 0 38 38" fill="none" xmlns="http://www.w3.org/2000/svg">
<mask id="mask0_312_500" style="mask-type:luminance" maskUnits="userSpaceOnUse" x="1" y="1" width="35" height="36">
<path d="M34.9005 15.6855H18.8226V22.3519H28.0772C27.2145 26.5871 23.6068 29.0184 18.8226 29.0184C13.1758 29.0184 8.62693 24.4695 8.62693 18.8226C8.62693 13.1758 13.1758 8.62693 18.8226 8.62693C21.2539 8.62693 23.4499 9.48965 25.1754 10.9014L30.1948 5.88193C27.1361 3.21536 23.2146 1.56836 18.8226 1.56836C9.25436 1.56836 1.56836 9.25436 1.56836 18.8226C1.56836 28.3909 9.25436 36.0769 18.8226 36.0769C27.4498 36.0769 35.2926 29.8026 35.2926 18.8226C35.2926 17.8031 35.1358 16.7051 34.9005 15.6855Z" fill="white"/>
</mask>
<g mask="url(#mask0_312_500)">
<path d="M0 29.0184V8.62695L13.3329 18.8227L0 29.0184Z" fill="#FBBC05"/>
</g>
<mask id="mask1_312_500" style="mask-type:luminance" maskUnits="userSpaceOnUse" x="1" y="1" width="35" height="36">
<path d="M34.9005 15.6855H18.8226V22.3519H28.0772C27.2145 26.5871 23.6068 29.0184 18.8226 29.0184C13.1758 29.0184 8.62693 24.4695 8.62693 18.8226C8.62693 13.1758 13.1758 8.62693 18.8226 8.62693C21.2539 8.62693 23.4499 9.48965 25.1754 10.9014L30.1948 5.88193C27.1361 3.21536 23.2146 1.56836 18.8226 1.56836C9.25436 1.56836 1.56836 9.25436 1.56836 18.8226C1.56836 28.3909 9.25436 36.0769 18.8226 36.0769C27.4498 36.0769 35.2926 29.8026 35.2926 18.8226C35.2926 17.8031 35.1358 16.7051 34.9005 15.6855Z" fill="white"/>
</mask>
<g mask="url(#mask1_312_500)">
<path d="M0 8.62714L13.3329 18.8229L18.8229 14.0387L37.6457 10.98V0H0V8.62714Z" fill="#EA4335"/>
</g>
<mask id="mask2_312_500" style="mask-type:luminance" maskUnits="userSpaceOnUse" x="1" y="1" width="35" height="36">
<path d="M34.9005 15.6855H18.8226V22.3519H28.0772C27.2145 26.5871 23.6068 29.0184 18.8226 29.0184C13.1758 29.0184 8.62693 24.4695 8.62693 18.8226C8.62693 13.1758 13.1758 8.62693 18.8226 8.62693C21.2539 8.62693 23.4499 9.48965 25.1754 10.9014L30.1948 5.88193C27.1361 3.21536 23.2146 1.56836 18.8226 1.56836C9.25436 1.56836 1.56836 9.25436 1.56836 18.8226C1.56836 28.3909 9.25436 36.0769 18.8226 36.0769C27.4498 36.0769 35.2926 29.8026 35.2926 18.8226C35.2926 17.8031 35.1358 16.7051 34.9005 15.6855Z" fill="white"/>
</mask>
<g mask="url(#mask2_312_500)">
<path d="M0 29.0186L23.5286 10.98L29.7244 11.7643L37.6457 0V37.6457H0V29.0186Z" fill="#34A853"/>
</g>
<mask id="mask3_312_500" style="mask-type:luminance" maskUnits="userSpaceOnUse" x="1" y="1" width="35" height="36">
<path d="M34.9005 15.6855H18.8226V22.3519H28.0772C27.2145 26.5871 23.6068 29.0184 18.8226 29.0184C13.1758 29.0184 8.62693 24.4695 8.62693 18.8226C8.62693 13.1758 13.1758 8.62693 18.8226 8.62693C21.2539 8.62693 23.4499 9.48965 25.1754 10.9014L30.1948 5.88193C27.1361 3.21536 23.2146 1.56836 18.8226 1.56836C9.25436 1.56836 1.56836 9.25436 1.56836 18.8226C1.56836 28.3909 9.25436 36.0769 18.8226 36.0769C27.4498 36.0769 35.2926 29.8026 35.2926 18.8226C35.2926 17.8031 35.1358 16.7051 34.9005 15.6855Z" fill="white"/>
</mask>
<g mask="url(#mask3_312_500)">
<path d="M37.6453 37.6455L13.3325 18.8227L10.1953 16.4698L37.6453 8.62695V37.6455Z" fill="#4285F4"/>
</g>
</svg>
